<?xml version="1.0" standalone="no"?>
<!DOCTYPE svg PUBLIC "-//W3C//DTD SVG 20010904//EN"
 "http://www.w3.org/TR/2001/REC-SVG-20010904/DTD/svg10.dtd">
<svg version="1.0" xmlns="http://www.w3.org/2000/svg"
 width="806.000000pt" height="806.000000pt" viewBox="0 0 806.000000 806.000000"
 preserveAspectRatio="xMidYMid meet">
<metadata>
Created by potrace 1.11, written by Peter Selinger 2001-2013
</metadata>
<g transform="translate(0.000000,806.000000) scale(0.100000,-0.100000)"
fill="#000000" stroke="none">
<path d="M2110 8055 c0 -3 28 -19 63 -36 151 -76 339 -219 458 -348 400 -433
454 -975 159 -1579 -141 -289 -268 -470 -609 -867 -509 -592 -877 -1114 -1127
-1600 -268 -519 -394 -962 -394 -1383 0 -182 11 -281 51 -442 114 -464 402
-851 889 -1200 213 -152 422 -267 665 -363 354 -141 734 -224 1070 -233 l170
-4 -137 29 c-537 116 -911 356 -1079 696 -67 135 -90 229 -96 392 -11 260 50
503 204 808 128 255 267 454 632 900 512 626 707 926 826 1268 58 164 78 281
78 447 0 163 -19 269 -72 405 -17 44 -29 80 -27 82 8 8 221 -225 289 -315 428
-569 562 -1228 391 -1922 -27 -107 -91 -297 -160 -470 -32 -81 -38 -107 -38
-175 -1 -71 3 -88 32 -147 39 -80 90 -128 187 -174 269 -129 642 -53 740 151
27 56 31 149 10 221 -9 33 -40 103 -68 156 -28 53 -48 100 -44 105 26 26 208
-128 348 -296 228 -271 385 -581 434 -855 21 -116 16 -304 -10 -401 -24 -85
-84 -210 -139 -283 -25 -34 -46 -65 -46 -68 0 -16 276 167 400 266 131 105
341 314 445 445 170 213 314 446 451 730 179 374 273 658 330 1000 22 133 31
672 14 830 -78 728 -394 1439 -920 2074 -132 160 -438 466 -599 600 -919 765
-2081 1263 -3560 1526 -204 37 -211 38 -211 30z"/>
</g>
</svg>
